
When.We.Leave.aka.Die.Fremde.2010.CUSTOM.SWESUB.XviD.AC3(5.1)-Zen_Bud


Format                           : AVI
File size                        : 1.37 GiB
Duration                         : 1h 59mn
Overall bit rate                 : 1 637 Kbps

Video

Format                           : MPEG-4 Visual
Codec ID/Hint                    : XviD
Duration                         : 1h 59mn
Bit rate                         : 1 178 Kbps
Width                            : 720 pixels
Height                           : 412 pixels
Display aspect ratio             : 2.071
Stream size                      : 1 007 MiB (72%)
Writing library                  : XviD 1.1.2 (UTC 2006-11-01)

Audio

Format                           : AC-3
Duration                         : 1h 59mn
Bit rate                         : 448 Kbps
Channel(s)                       : 6 channels
Channel positions                : Front: L C R, Side: L R, LFE
Sampling rate                    : 48.0 KHz
Bit depth                        : 16 bits
Stream size                      : 383 MiB (27%)
Language:                        : German and Turkish !!


********* For the sub THX to: "Simontax" http://swesub.nu/news.php ***********